HIERARCHY
ROOT hips
{
  OFFSET 0 10.6860622 2.3727825e-15
  CHANNELS 6 Xposition Yposition Zposition Yrotation Xrotation Zrotation
  JOINT leftUpperLeg
  {
    OFFSET 0.6642549969 -0.9402397400000004 0
    CHANNELS 3 Yrotation Xrotation Zrotation
    JOINT leftLowerLeg
    {
      OFFSET 0 -3.997221335632195 0
      CHANNELS 3 Yrotation Xrotation Zrotation
      JOINT leftFoot
      {
        OFFSET -0.13777839790000004 -4.6145792000000005 -0.22186036399999998
        CHANNELS 3 Yrotation Xrotation Zrotation
        JOINT leftToes
        {
          OFFSET -0.03777410834999995 -0.9130806927000008 0.85230013
          CHANNELS 3 Yrotation Xrotation Zrotation
          End Site
          {
            OFFSET -0.03777410834999995 -0.9130806927000008 0.85230013
          }
        }
      }
    }
  }
  JOINT rightUpperLeg
  {
    OFFSET -0.6642778626 -0.9402397400000004 0
    CHANNELS 3 Yrotation Xrotation Zrotation
    JOINT rightLowerLeg
    {
      OFFSET 0 -3.997221452859387 0
      CHANNELS 3 Yrotation Xrotation Zrotation
      JOINT rightFoot
      {
        OFFSET 0.1377926176 -4.6145792000000005 -0.22185782299999995
        CHANNELS 3 Yrotation Xrotation Zrotation
        JOINT rightToes
        {
          OFFSET 0.037780746850000047 -0.9130806927000008 0.85230167
          CHANNELS 3 Yrotation Xrotation Zrotation
          End Site
          {
            OFFSET 0.037780746850000047 -0.9130806927000008 0.85230167
          }
        }
      }
    }
  }
  JOINT spine
  {
    OFFSET 0 0.13988381660000015 0
    CHANNELS 3 Yrotation Xrotation Zrotation
    JOINT chest
    {
      OFFSET 0 0.6191039003973773 0
      CHANNELS 3 Yrotation Xrotation Zrotation
      JOINT upperChest
      {
        OFFSET 0 0.9855186130586943 0
        CHANNELS 3 Yrotation Xrotation Zrotation
        JOINT leftShoulder
        {
          OFFSET 0.1807663869 1.5087829790000005 0
          CHANNELS 3 Yrotation Xrotation Zrotation
          JOINT leftUpperArm
          {
            OFFSET 0.5985063006419806 0 0
            CHANNELS 3 Yrotation Xrotation Zrotation
            JOINT leftLowerArm
            {
              OFFSET 2.2993332369501065 0 0
              CHANNELS 3 Yrotation Xrotation Zrotation
              JOINT leftHand
              {
                OFFSET 2.395047042602395 0 0
                CHANNELS 3 Yrotation Xrotation Zrotation
                JOINT leftIndexProximal
                {
                  OFFSET 0.5766295810000004 0.04556643899499946 0.17265095988184
                  CHANNELS 3 Yrotation Xrotation Zrotation
                  JOINT leftIndexIntermediate
                  {
                    OFFSET 0.2957229000000008 -0.019352197700001517 -0.007932640616999987
                    CHANNELS 3 Yrotation Xrotation Zrotation
                    JOINT leftIndexDistal
                    {
                      OFFSET 0.19008243099999922 -0.012484908149998475 -0.002786250786000012
                      CHANNELS 3 Yrotation Xrotation Zrotation
                      End Site
                      {
                        OFFSET 0.19008243099999922 -0.012484908149998475 -0.002786250786000012
                      }
                    }
                  }
                }
                JOINT leftMiddleProximal
                {
                  OFFSET 0.5834975091000001 0.0524350405149987 0.02204081888183999
                  CHANNELS 3 Yrotation Xrotation Zrotation
                  JOINT leftMiddleIntermediate
                  {
                    OFFSET 0.33880573540000003 -0.019871473270000717 -0.00000971183179999946
                    CHANNELS 3 Yrotation Xrotation Zrotation
                    JOINT leftMiddleDistal
                    {
                      OFFSET 0.20676022730000088 -0.012221336379999448 0.0001471936708000235
                      CHANNELS 3 Yrotation Xrotation Zrotation
                      End Site
                      {
                        OFFSET 0.20676022730000088 -0.012221336379999448 0.0001471936708000235
                      }
                    }
                  }
                }
                JOINT leftLittleProximal
                {
                  OFFSET 0.5344154683999995 -0.012880921405001189 -0.24414037221816004
                  CHANNELS 3 Yrotation Xrotation Zrotation
                  JOINT leftLittleIntermediate
                  {
                    OFFSET 0.21758961730000093 -0.011650919939999227 0.011893592810000034
                    CHANNELS 3 Yrotation Xrotation Zrotation
                    JOINT leftLittleDistal
                    {
                      OFFSET 0.1475273964999999 -0.008152365682999818 0.006001092492999946
                      CHANNELS 3 Yrotation Xrotation Zrotation
                      End Site
                      {
                        OFFSET 0.1475273964999999 -0.008152365682999818 0.006001092492999946
                      }
                    }
                  }
                }
                JOINT leftRingProximal
                {
                  OFFSET 0.5799399463000003 0.026911854694997794 -0.12150566991816003
                  CHANNELS 3 Yrotation Xrotation Zrotation
                  JOINT leftRingIntermediate
                  {
                    OFFSET 0.26167887460000006 -0.013480186499999602 0.010996293000000053
                    CHANNELS 3 Yrotation Xrotation Zrotation
                    JOINT leftRingDistal
                    {
                      OFFSET 0.17667108799999987 -0.008990287899999228 0.0055541023999999065
                      CHANNELS 3 Yrotation Xrotation Zrotation
                      End Site
                      {
                        OFFSET 0.17667108799999987 -0.008990287899999228 0.0055541023999999065
                      }
                    }
                  }
                }
                JOINT leftThumbProximal
                {
                  OFFSET 0.11018806699999972 -0.09448718900500053 0.17047963138184
                  CHANNELS 3 Yrotation Xrotation Zrotation
                  JOINT leftThumbIntermediate
                  {
                    OFFSET 0.31062601459999983 -0.08126270900000132 0.15443142000000007
                    CHANNELS 3 Yrotation Xrotation Zrotation
                    JOINT leftThumbDistal
                    {
                      OFFSET 0.21627175790000086 -0.08833193599999878 0.018771167799999988
                      CHANNELS 3 Yrotation Xrotation Zrotation
                      End Site
                      {
                        OFFSET 0.21627175790000086 -0.08833193599999878 0.018771167799999988
                      }
                    }
                  }
                }
              }
            }
          }
        }
        JOINT neck
        {
          OFFSET 0 1.5463305265074576 0
          CHANNELS 3 Yrotation Xrotation Zrotation
          JOINT head
          {
            OFFSET 0 0.8456443600000344 0
            CHANNELS 3 Yrotation Xrotation Zrotation
            JOINT leftEye
            {
              OFFSET 0.30408573140000006 0.5104519199999995 0.1276382305
              CHANNELS 3 Yrotation Xrotation Zrotation
              End Site
              {
                OFFSET 0.30408573140000006 0.5104519199999995 0.1276382305
              }
            }
            JOINT rightEye
            {
              OFFSET -0.30409491089999996 0.5104519199999995 0.1276379445
              CHANNELS 3 Yrotation Xrotation Zrotation
              End Site
              {
                OFFSET -0.30409491089999996 0.5104519199999995 0.1276379445
              }
            }
            JOINT jaw
            {
              OFFSET -3.155239131000001e-7 -0.11984121820000082 0.60178107
              CHANNELS 3 Yrotation Xrotation Zrotation
              End Site
              {
                OFFSET -3.155239131000001e-7 -0.11984121820000082 0.60178107
              }
            }
          }
        }
        JOINT rightShoulder
        {
          OFFSET -0.1807303465 1.5087829790000005 0
          CHANNELS 3 Yrotation Xrotation Zrotation
          JOINT rightUpperArm
          {
            OFFSET -0.5985063796536958 0 0
            CHANNELS 3 Yrotation Xrotation Zrotation
            JOINT rightLowerArm
            {
              OFFSET -2.2993322059002854 0 0
              CHANNELS 3 Yrotation Xrotation Zrotation
              JOINT rightHand
              {
                OFFSET -2.395045314457259 0 0
                CHANNELS 3 Yrotation Xrotation Zrotation
                JOINT rightIndexProximal
                {
                  OFFSET -0.5764487688300002 0.0441371204405987 0.17361932004999997
                  CHANNELS 3 Yrotation Xrotation Zrotation
                  JOINT rightIndexIntermediate
                  {
                    OFFSET -0.29573011380000047 -0.01934826376999843 -0.007698921482999974
                    CHANNELS 3 Yrotation Xrotation Zrotation
                    JOINT rightIndexDistal
                    {
                      OFFSET -0.19008373999999884 -0.012503266380000655 -0.0026365778999999897
                      CHANNELS 3 Yrotation Xrotation Zrotation
                      End Site
                      {
                        OFFSET -0.19008373999999884 -0.012503266380000655 -0.0026365778999999897
                      }
                    }
                  }
                }
                JOINT rightMiddleProximal
                {
                  OFFSET -0.5834852037300005 0.05211639405060153 0.02307162440000001
                  CHANNELS 3 Yrotation Xrotation Zrotation
                  JOINT rightMiddleIntermediate
                  {
                    OFFSET -0.33880114510000003 -0.019952774050000954 0.0002455003561999819
                    CHANNELS 3 Yrotation Xrotation Zrotation
                    JOINT rightMiddleDistal
                    {
                      OFFSET -0.20675694929999955 -0.012273788999999091 0.00030209124000002766
                      CHANNELS 3 Yrotation Xrotation Zrotation
                      End Site
                      {
                        OFFSET -0.20675694929999955 -0.012273788999999091 0.00030209124000002766
                      }
                    }
                  }
                }
                JOINT rightLittleProximal
                {
                  OFFSET -0.5346811737299992 -0.011214256288399227 -0.24363941305000003
                  CHANNELS 3 Yrotation Xrotation Zrotation
                  JOINT rightLittleIntermediate
                  {
                    OFFSET -0.21757715980000092 -0.011771559690000988 0.01201554387
                    CHANNELS 3 Yrotation Xrotation Zrotation
                    JOINT rightLittleDistal
                    {
                      OFFSET -0.1475201849000004 -0.00822055339600003 0.006082065407000015
                      CHANNELS 3 Yrotation Xrotation Zrotation
                      End Site
                      {
                        OFFSET -0.1475201849000004 -0.00822055339600003 0.006082065407000015
                      }
                    }
                  }
                }
                JOINT rightRingProximal
                {
                  OFFSET -0.5800810755299999 0.027657985680600072 -0.12066365025000003
                  CHANNELS 3 Yrotation Xrotation Zrotation
                  JOINT rightRingIntermediate
                  {
                    OFFSET -0.26166445029999974 -0.013623118409999302 0.011164098990000045
                    CHANNELS 3 Yrotation Xrotation Zrotation
                    JOINT rightRingDistal
                    {
                      OFFSET -0.17666387530000027 -0.009072900100000503 0.005668185599999959
                      CHANNELS 3 Yrotation Xrotation Zrotation
                      End Site
                      {
                        OFFSET -0.17666387530000027 -0.009072900100000503 0.005668185599999959
                      }
                    }
                  }
                }
                JOINT rightThumbProximal
                {
                  OFFSET -0.10997596379000074 -0.09577489355940072 0.16989765924999997
                  CHANNELS 3 Yrotation Xrotation Zrotation
                  JOINT rightThumbIntermediate
                  {
                    OFFSET -0.31036620999999986 -0.08229339117999834 0.15440884469999996
                    CHANNELS 3 Yrotation Xrotation Zrotation
                    JOINT rightThumbDistal
                    {
                      OFFSET -0.21631306399999906 -0.08825326400000111 0.018656797720000014
                      CHANNELS 3 Yrotation Xrotation Zrotation
                      End Site
                      {
                        OFFSET -0.21631306399999906 -0.08825326400000111 0.018656797720000014
                      }
                    }
                  }
                }
              }
            }
          }
        }
      }
    }
  }
}
MOTION
Frames: 7
Frame Time: 0.03333333333333333
5.366740723532839 -9.88135155242062 3.8973155830828583 0.008856223795946647 -58.994656339191536 179.99499116019695 77.52193022059356 -59.28428221375308 -60.30522809085966 140.4329218857699 63.46070127577697 177.837685288125 3.841265683530903 -10.430395030944856 19.939006730801992 0 0 0 -64.84432851990299 -53.25508999236089 44.83979804356028 179.14507127297708 58.81556871270811 142.84638352724951 -0.9794751595716782 -7.553955993613 -2.289967178638902 0 0 0 -1.7247253528004433e-20 5.0722127177797764 -3.8939587913894735e-19 -0.6135092768587179 42.694836252486645 -0.4286589316621686 0 0 0 0.5589236126785848 -5.4919133870742165 -15.392559376983657 -23.052349911179398 51.609152895425936 -30.29064265030341 -17.6994964901953 36.11316056592848 -3.265200952566324 2.153180816134511 2.2530350440119626 2.406245287124869 0 0 0 0 0 0 0 0 0 0 0 0 0 0 0 0 0 0 0 0 0 0 0 0 0 0 0 0 0 0 0 0 0 0 0 0 0 0 0 0 0 0 0 0 0 0 15.524525997657134 0 0 0.13463699958950387 0 0 0 0 0 0 0 0 0 0 -0.4651724601271356 -5.543907088058339 15.180620446573899 22.99929709818899 51.690905367794045 30.303566951336368 17.663438610927823 36.10673100951698 3.1501244750633846 -2.105456252275792 2.2492795971002586 -2.37998939187583 0 0 0 0 0 0 0 0 0 0 0 0 0 0 0 0 0 0 0 0 0 0 0 0 0 0 0 0 0 0 0 0 0 0 0 0 0 0 0 0 0 0 0 0 0
5.366740723532839 -9.88135155242062 3.906425621947801 0.008856223795946647 -58.994656339191536 179.99499116019695 77.02483505774867 -59.17623982035198 -59.66626822238357 140.40466444389548 63.75741577705042 177.80394768418068 3.841265683530903 -10.430395030944856 19.939006730801992 0 0 0 -64.57099926923082 -52.97676593011504 44.48308848738308 178.6856830541562 59.09739150009691 142.316484701128 -1.1193079694845496 -7.483485800300651 -2.286698538349635 0 0 0 -1.558587118840392e-18 5.598711442078928 -7.621006108975907e-20 -0.5997481835717192 41.2402930695204 -0.40802673373127485 0 0 0 0.7807629937197801 -5.2518174712393355 -16.810596363638318 -21.794993749230283 52.02887816436701 -28.66299774356472 -16.9823069743708 36.13341647620404 -3.150108571836151 1.7890700494657914 2.889634780607146 2.3320534938688304 0 0 0 0 0 0 0 0 0 0 0 0 0 0 0 0 0 0 0 0 0 0 0 0 0 0 0 0 0 0 0 0 0 0 0 0 0 0 0 0 0 0 0 0 0 0 15.524525997657134 0 0 0.13463699958950387 0 0 0 0 0 0 0 0 0 0 -0.6834454019341979 -5.309203660377801 16.582887361399184 21.737365099666572 52.11329947165886 28.67502588311682 16.95232122683198 36.126029714356505 3.0337317335932994 -1.7416013097593248 2.8875794838528313 -2.3031959158347193 0 0 0 0 0 0 0 0 0 0 0 0 0 0 0 0 0 0 0 0 0 0 0 0 0 0 0 0 0 0 0 0 0 0 0 0 0 0 0 0 0 0 0 0 0
5.366740723532839 -9.88135155242062 3.9109805071841364 0.008856223795946647 -58.994656339191536 179.99499116019695 76.77778028938299 -59.121165348296984 -59.34825413181219 140.3902932465334 63.90575572320043 177.78683997242626 3.841265683530903 -10.430395030944856 19.939006730801992 0 0 0 -64.43609589026593 -52.837231345102374 44.30644270141233 178.45267335860711 59.23747189787334 142.04825492011648 -1.1892135005056657 -7.448248091184511 -2.285129763104391 0 0 0 -1.5391698299470297e-18 5.861940057311712 3.0995474878754436e-19 -0.5932427234991812 40.51348293421671 -0.39805868595223903 0 0 0 0.8893288609922182 -5.129815727081672 -17.5186142135464 -21.155006704696394 52.2303033265164 -27.838276643788376 -16.623665638134128 36.14309600485513 -3.092441606797972 1.6066569220208264 3.2077013044950937 2.2934287392071546 0 0 0 0 0 0 0 0 0 0 0 0 0 0 0 0 0 0 0 0 0 0 0 0 0 0 0 0 0 0 0 0 0 0 0 0 0 0 0 0 0 0 0 0 0 0 15.524525997657134 0 0 0.13463699958950387 0 0 0 0 0 0 0 0 0 0 -0.7903056978563607 -5.189947787392493 17.28304855833391 21.09496287742694 52.31602986623048 27.849728289554598 16.596731111229968 36.13524318967662 2.975424202012857 -1.5593036156631839 3.2064896095345663 -2.2632672162867467 0 0 0 0 0 0 0 0 0 0 0 0 0 0 0 0 0 0 0 0 0 0 0 0 0 0 0 0 0 0 0 0 0 0 0 0 0 0 0 0 0 0 0 0 0
5.366740723532839 -9.88135155242062 3.915535392420472 0.008856223795946647 -58.994656339191536 179.99499116019695 76.53172263186435 -59.065382048442416 -59.031218449773256 140.37574162679027 64.05409563357566 177.76955622597163 3.841265683530903 -10.430395030944856 19.939006730801992 0 0 0 -64.30233269790551 -52.69745047961204 44.13090470299363 178.21741929280728 59.3769835835211 141.77780384235263 -1.2591124459196257 -7.413008910212328 -2.2836045703760592 0 0 0 -1.559691127322112e-18 6.125168813484666 -8.344838375370799e-20 -0.5869711419711112 39.78667181563709 -0.388304073967604 0 0 0 0.9963524754053881 -5.006487883472061 -18.226262790547896 -20.507453930120725 52.4260206903675 -27.006208239004042 -16.264969473763585 36.152484893178304 -3.034693810832723 1.423969542809357 3.5256433443234783 2.2537771222203307 0 0 0 0 0 0 0 0 0 0 0 0 0 0 0 0 0 0 0 0 0 0 0 0 0 0 0 0 0 0 0 0 0 0 0 0 0 0 0 0 0 0 0 0 0 0 15.524525997657134 0 0 0.13463699958950387 0 0 0 0 0 0 0 0 0 0 -0.8956750143936562 -5.069400908556399 17.98285480259437 20.44490996004216 52.51303736737399 27.016999420623172 16.241087446230804 36.14416594304728 2.9170399031580483 -1.3767236432743941 3.5252712486242292 -2.2223091806305417 0 0 0 0 0 0 0 0 0 0 0 0 0 0 0 0 0 0 0 0 0 0 0 0 0 0 0 0 0 0 0 0 0 0 0 0 0 0 0 0 0 0 0 0 0
5.366740723532839 -9.88135155242062 3.9246451628931425 0.008856223795946647 -58.994656339191536 179.99499116019695 76.04264460085314 -58.95174229979881 -58.400131983064064 140.34608934038118 64.35076359097962 177.7344472569519 3.841265683530903 -10.430395030944856 19.939006730801992 0 0 0 -64.0381851685945 -52.4171616100323 43.78310828552749 177.74013672516614 59.65430968084547 141.23021269253937 -1.3988903844458143 -7.342527802467502 -2.280684746458975 0 0 0 0 6.651557455517463 0 -0.5751042470264555 38.334470489123575 -0.3694154968252319 0 0 0 1.2055222463999722 -4.75616903757622 -19.639146061512204 -19.19080270555031 52.79979391309981 -25.321351070776593 -15.547566423427206 36.170398796326914 -2.9189896674364273 1.0578150370367894 4.160985709163547 2.1714012507469223 0 0 0 0 0 0 0 0 0 0 0 0 0 0 0 0 0 0 0 0 0 0 0 0 0 0 0 0 0 0 0 0 0 0 0 0 0 0 0 0 0 0 0 0 0 0 15.524525997657134 0 0 0.13463699958950387 0 0 0 0 0 0 0 0 0 0 -1.1016994020260231 -4.824737779277454 19.380133945479248 19.123030511022186 52.88935276271028 25.33058395719932 15.529785067239546 36.161121971342794 2.8000742146097624 -1.0107603071148092 4.162277887572412 -2.1373134226438126 0 0 0 0 0 0 0 0 0 0 0 0 0 0 0 0 0 0 0 0 0 0 0 0 0 0 0 0 0 0 0 0 0 0 0 0 0 0 0 0 0 0 0 0 0
5.366740723532839 -9.88135155242062 3.929200048129478 0.008856223795946647 -58.994656339191536 179.99499116019695 75.79964533403651 -58.893885952059165 -58.086104172310215 140.3309831008665 64.49908558713065 177.7166085765159 3.841265683530903 -10.430395030944856 19.939006730801992 0 0 0 -63.9077927181863 -52.27666213711971 43.6108448244416 177.49806385400686 59.79207093402267 140.95302024103023 -1.468768446322153 -7.307284127944057 -2.279289798122469 0 0 0 -7.571830376990504e-19 6.914706459013697 3.432136065983503e-19 -0.569492125035726 37.609297250590664 -0.36026454795533125 0 0 0 1.3076125899671078 -4.629262579203413 -20.344164965408623 -18.5220874331182 52.97765070980988 -24.468963682113078 -15.18888324894852 36.178910921420126 -2.861041615485591 0.8743415566441021 4.478350795992425 2.1286752795401287 0 0 0 0 0 0 0 0 0 0 0 0 0 0 0 0 0 0 0 0 0 0 0 0 0 0 0 0 0 0 0 0 0 0 0 0 0 0 0 0 0 0 0 0 0 0 15.524525997657134 0 0 0.13463699958950387 0 0 0 0 0 0 0 0 0 0 -1.2023005297811273 -4.700700544765279 20.077395054801283 18.451581364741692 53.06845401797076 24.477294318724233 15.174156239493273 36.16916351504108 2.7415030982600306 -0.8273710220934729 4.480469075465833 -2.0932737407690647 0 0 0 0 0 0 0 0 0 0 0 0 0 0 0 0 0 0 0 0 0 0 0 0 0 0 0 0 0 0 0 0 0 0 0 0 0 0 0 0 0 0 0 0 0
5.366740723532839 -9.88135155242062 3.933754933365813 0.008856223795946647 -58.994656339191536 179.99499116019695 75.55766863878593 -58.83534754978838 -57.77308283316409 140.31568840921074 64.64741139297301 177.69858147038306 3.841265683530903 -10.430395030944856 19.939006730801992 0 0 0 -63.77850397402441 -52.13592228417356 43.43964595279695 177.25366163996927 59.92923799368277 140.67352286843405 -1.538640245060545 -7.272038929666188 -2.2779378952260534 0 0 0 7.566056116905211e-19 7.177855828361431 -3.415594316993892e-19 -0.564078582488757 36.88412454721987 -0.3512900233410415 0 0 0 1.408110697684158 -4.501113951180103 -21.048829309161142 -17.846317389273185 53.149454361220236 -23.609708500974847 -14.830150986981193 36.18713200759085 -2.8030226566515206 0.690548236506737 4.79557774529978 2.0849106487210305 0 0 0 0 0 0 0 0 0 0 0 0 0 0 0 0 0 0 0 0 0 0 0 0 0 0 0 0 0 0 0 0 0 0 0 0 0 0 0 0 0 0 0 0 0 0 15.524525997657134 0 0 0.13463699958950387 0 0 0 0 0 0 0 0 0 0 -1.301362178515178 -4.575452448870436 20.7743156276678 17.77299104011582 53.24148893858465 23.617050036638428 14.818480956044615 36.17690972735731 2.682864950317529 -0.6436537127603148 4.798518196356478 -2.0481927677946983 0 0 0 0 0 0 0 0 0 0 0 0 0 0 0 0 0 0 0 0 0 0 0 0 0 0 0 0 0 0 0 0 0 0 0 0 0 0 0 0 0 0 0 0 0
